<svg xmlns="http://www.w3.org/2000/svg" version="1.1" xmlns:xlink="http://www.w3.org/1999/xlink" xmlns:svgjs="http://svgjs.com/svgjs" width="1440" height="560" preserveAspectRatio="none" viewBox="0 0 1440 560">
    <g mask="url(&quot;#SvgjsMask1009&quot;)" fill="none">
        <rect width="1440" height="560" x="0" y="0" fill="rgba(0, 191, 165, 1)"></rect>
        <path d="M0,477.891C95.867,461.401,202.166,494.495,283.554,441.218C364.768,388.055,373.662,275.411,430.033,196.39C504.334,92.235,655.301,31.577,666.69,-95.856C677.952,-221.869,574.511,-330.826,485.158,-420.392C399.824,-505.929,292.429,-569.92,173.348,-590.37C61.18,-609.632,-45.794,-559.798,-155.756,-530.455C-268.816,-500.285,-413.68,-512.346,-480.091,-416.001C-547.255,-318.562,-477.84,-186.499,-474.383,-68.206C-471.606,26.803,-479.909,117.581,-461.771,210.884C-438.615,330,-459.082,490.144,-354.033,550.886C-247.566,612.448,-121.204,498.739,0,477.891" fill="#009984"></path>
        <path d="M1440 1151.996C1554.545 1148.138 1670.061 1129.966 1766.063 1067.364 1861.715 1004.99 1946.298 914.634 1973.9189999999999 803.833 2000.083 698.874 1923.755 599.725 1909.363 492.516 1894.779 383.874 1959.5410000000002 254.844 1888.962 170.97199999999998 1818.511 87.25299999999999 1683.006 119.793 1576.099 96.48899999999998 1478.252 75.16000000000003 1386.525 26.577999999999975 1287.258 39.809999999999945 1178.663 54.286 1067.593 92.36200000000002 994.5450000000001 174.01100000000002 921.09 256.114 894.148 371.10400000000004 892.315 481.255 890.61 583.716 951.634 670.939 984.662 767.946 1022.136 878.011 1010.633 1014.85 1099.51 1089.812 1189.526 1165.7350000000001 1322.308 1155.96 1440 1151.996" fill="#00e5c6"></path>
    </g>
    <defs>
        <mask id="SvgjsMask1009">
            <rect width="1440" height="560" fill="#ffffff"></rect>
        </mask>
    </defs>
</svg>